<?xml version="1.0" standalone="no"?>
<!DOCTYPE svg PUBLIC "-//W3C//DTD SVG 20010904//EN"
 "http://www.w3.org/TR/2001/REC-SVG-20010904/DTD/svg10.dtd">
<svg version="1.0" xmlns="http://www.w3.org/2000/svg"
 width="640.000000pt" height="640.000000pt" viewBox="0 0 640.000000 640.000000"
 preserveAspectRatio="xMidYMid meet">
<metadata>
Created by potrace 1.14, written by Peter Selinger 2001-2017
</metadata>
<g transform="translate(0.000000,640.000000) scale(0.100000,-0.100000)"
fill="#000000" stroke="none">
<path d="M2995 6353 c-27 -7 -35 -21 -35 -63 0 -50 10 -80 26 -80 8 0 14 4 14
9 0 5 8 8 18 7 14 -1 17 8 17 63 0 65 -4 72 -40 64z"/>
<path d="M3305 6353 c-59 -14 -84 -84 -45 -123 23 -23 37 -24 77 -9 69 26 96
92 51 123 -22 16 -45 18 -83 9z"/>
<path d="M3660 6330 c0 -5 -6 -7 -14 -4 -16 6 -34 -39 -38 -96 -2 -27 0 -34
12 -31 8 2 21 4 28 5 22 4 30 20 37 79 6 49 5 57 -9 57 -9 0 -16 -4 -16 -10z"/>
<path d="M2663 6303 c-14 -3 -24 -12 -24 -24 -1 -10 -2 -25 -2 -31 -3 -33 14
-78 28 -78 8 0 15 4 15 9 0 5 8 8 18 7 13 -1 17 7 18 39 1 43 -11 86 -23 84
-4 -1 -18 -4 -30 -6z"/>
<path d="M3990 6270 c0 -5 -7 -7 -15 -4 -20 8 -59 -78 -51 -112 7 -25 20 -31
31 -14 4 6 10 8 15 5 15 -9 29 21 36 78 5 40 3 57 -5 57 -6 0 -11 -4 -11 -10z"/>
<path d="M2312 6212 c-12 -31 39 -139 55 -117 5 6 15 10 23 10 18 0 20 26 5
80 -10 36 -14 40 -44 40 -19 1 -36 -5 -39 -13z"/>
<path d="M4310 6181 c0 -6 -6 -8 -14 -5 -16 6 -36 -20 -60 -77 -18 -44 -9 -63
28 -53 43 10 92 130 59 141 -7 3 -13 0 -13 -6z"/>
<path d="M2040 6120 c0 -6 -5 -8 -11 -4 -19 11 -27 -16 -17 -56 11 -42 45 -81
56 -65 4 6 14 10 22 10 19 0 16 32 -7 82 -18 36 -43 56 -43 33z"/>
<path d="M3018 6045 c-1 -1 -23 -5 -48 -8 -25 -3 -57 -8 -71 -12 l-27 -7 22
-21 c21 -21 84 -181 136 -342 l22 -70 -62 -165 c-34 -91 -68 -175 -76 -187 -9
-14 -10 -24 -4 -24 52 -7 110 10 120 35 4 11 20 54 35 94 15 39 30 72 34 72 9
0 61 -148 61 -172 0 -10 8 -22 19 -27 20 -11 95 -10 106 1 4 4 13 4 21 1 8 -3
14 -3 14 0 0 3 -28 81 -62 174 -89 241 -87 275 34 531 40 85 62 102 73 54 6
-27 -1 -383 -10 -497 -8 -112 -9 -261 -1 -274 13 -20 106 -9 123 15 12 17 13
16 13 -8 0 -22 5 -26 41 -31 79 -10 101 15 114 128 3 28 10 86 16 130 59 450
69 507 97 538 21 24 8 34 -58 41 -148 16 -421 23 -465 13 -28 -7 -31 -13 -42
-70 -16 -83 -53 -173 -65 -155 -21 32 -46 141 -47 204 -1 38 -3 41 -30 42 -16
0 -31 -1 -33 -3z m557 -74 c5 -17 4 -40 -10 -151 -2 -19 -7 -60 -10 -90 -3
-30 -8 -66 -10 -80 -2 -14 -7 -50 -11 -80 -13 -120 -43 -312 -49 -318 -3 -4
-4 14 -1 38 3 25 8 108 11 185 3 77 8 156 10 175 2 19 6 76 10 125 6 85 22
191 32 208 8 13 22 7 28 -12z"/>
<path d="M4579 6033 c-36 -43 -63 -103 -45 -103 20 0 69 26 77 42 23 42 29 78
13 78 -8 0 -14 -6 -14 -12 0 -10 -2 -10 -8 0 -7 10 -12 8 -23 -5z"/>
<path d="M1734 5989 c-17 -5 -37 -16 -44 -24 -21 -25 -16 -72 10 -100 20 -21
30 -24 54 -19 81 18 116 92 64 137 -22 19 -37 20 -84 6z"/>
<path d="M4847 5900 c-57 -17 -66 -55 -27 -110 25 -35 19 -34 70 -14 62 25 74
69 32 117 -16 18 -32 20 -75 7z"/>
<path d="M2110 5822 c-129 -55 -277 -142 -243 -142 12 0 30 -69 37 -148 3 -29
8 -57 11 -62 4 -6 1 -10 -5 -10 -6 0 -42 32 -81 70 -48 48 -69 76 -65 87 5 12
1 14 -21 9 -36 -8 -156 -69 -160 -82 -2 -5 9 -15 25 -21 38 -17 183 -135 268
-218 l72 -70 15 -90 c21 -121 29 -200 28 -257 0 -27 2 -48 5 -48 2 0 21 7 42
15 48 21 84 55 73 69 -11 14 -44 173 -39 188 5 15 138 -117 138 -137 0 -18 -3
-17 37 -6 28 8 33 7 38 -10 4 -11 8 -143 10 -292 1 -150 6 -285 10 -302 8 -30
43 -87 57 -93 4 -2 8 -9 8 -14 0 -6 18 -34 39 -62 44 -57 236 -348 406 -614
l112 -176 -30 -65 c-27 -58 -30 -75 -32 -169 l-1 -104 -69 -57 c-38 -31 -161
-130 -274 -221 -112 -91 -206 -171 -209 -178 -5 -18 200 -220 276 -271 77 -52
129 -75 137 -61 4 6 10 8 15 5 10 -6 66 70 112 155 117 215 155 282 218 388
24 39 47 72 50 72 20 0 41 -48 70 -155 60 -225 118 -463 125 -508 l7 -45 58
14 c98 23 180 54 301 115 135 69 167 96 149 129 -7 12 -100 144 -207 291
l-195 270 28 67 c30 70 36 144 19 239 -9 50 -15 42 189 257 77 82 148 157 157
167 9 10 74 80 145 155 71 75 136 145 144 154 8 9 65 70 125 135 61 65 123
132 139 149 32 35 138 148 231 246 40 42 81 100 115 165 29 55 65 123 80 150
304 558 393 736 394 784 1 34 -1 36 -29 33 -34 -3 -64 -35 -95 -98 -16 -32
-113 -132 -224 -229 -6 -5 -34 -30 -61 -55 -149 -134 -335 -293 -335 -286 0
26 300 487 336 515 31 24 24 35 -44 70 -40 20 -92 21 -92 1 0 -12 -249 -424
-347 -572 -83 -128 -84 -130 -64 -144 12 -9 21 -21 21 -28 0 -20 -112 -175
-431 -601 -428 -571 -524 -696 -565 -738 -73 -72 -60 -100 -268 593 -166 550
-139 495 -304 627 -160 129 -302 254 -302 267 0 1 30 18 67 36 64 32 66 34 45
48 -12 8 -22 20 -22 28 0 7 -41 102 -91 211 -148 320 -202 450 -196 475 4 20
-18 17 -83 -10z m-61 -99 c35 -24 330 -644 310 -651 -12 -5 -61 30 -144 102
-178 155 -184 168 -211 416 -16 147 -8 170 45 133z m1135 -2517 c-7 -19 -16
-20 -32 -4 -16 16 -15 45 1 51 16 5 38 -28 31 -47z"/>
<path d="M1455 5800 c8 -25 8 -25 -14 -6 -20 18 -21 18 -21 1 0 -22 50 -103
67 -110 7 -2 13 3 13 12 0 12 3 13 14 4 23 -19 29 5 10 41 -17 33 -24 41 -58
68 -18 14 -18 13 -11 -10z"/>
<path d="M1189 5613 c-1 -4 -1 -12 0 -17 1 -5 -4 -4 -13 3 -10 8 -16 9 -21 1
-7 -11 25 -69 49 -89 15 -13 76 -4 76 12 0 27 -88 114 -91 90z"/>
<path d="M5412 5502 c-31 -9 -102 -81 -102 -104 0 -17 2 -17 38 -3 42 17 116
90 107 105 -7 11 -9 11 -43 2z"/>
<path d="M935 5390 c-3 -5 -12 -7 -20 -3 -33 12 -6 -50 39 -90 12 -11 29 -16
41 -13 11 3 25 6 32 6 19 0 4 31 -35 73 -38 39 -47 43 -57 27z"/>
<path d="M5588 5241 c-43 -33 -69 -62 -65 -74 3 -11 5 -11 54 2 39 11 103 67
103 92 0 18 -59 5 -92 -20z"/>
<path d="M720 5141 c0 -5 -9 -7 -20 -4 -34 9 -23 -17 25 -64 39 -36 49 -42 65
-33 11 6 20 7 20 3 0 -4 5 -2 11 4 14 14 -6 45 -52 79 -35 25 -49 30 -49 15z"/>
<path d="M5805 4991 c-22 -10 -55 -30 -73 -44 -30 -22 -31 -26 -17 -40 13 -14
19 -14 56 1 44 17 109 71 109 91 0 16 -29 13 -75 -8z"/>
<path d="M535 4886 c-44 -19 -61 -57 -45 -96 7 -17 21 -35 32 -41 39 -21 128
32 128 76 0 31 -37 75 -63 75 -12 -1 -35 -7 -52 -14z"/>
<path d="M926 4882 c-4 -7 -11 -10 -16 -7 -9 6 -39 -22 -71 -66 l-19 -27 28
-17 c47 -31 162 -168 151 -180 -3 -2 -43 5 -89 16 -62 14 -91 27 -108 45 -19
22 -23 23 -28 9 -5 -12 -9 -13 -14 -4 -5 8 -17 -1 -37 -28 -39 -54 -79 -131
-72 -138 4 -3 19 -1 34 5 34 13 81 7 245 -31 190 -44 199 -49 280 -142 81 -92
140 -178 140 -201 0 -9 5 -16 10 -16 6 0 10 5 10 11 0 6 6 9 14 6 16 -6 37 14
60 60 20 39 20 43 2 43 -21 0 -145 144 -134 155 7 7 118 -22 154 -40 42 -22
77 -7 114 52 17 26 30 50 30 54 0 4 -19 10 -42 14 -88 13 -205 37 -283 57 -72
19 -85 27 -135 77 -73 74 -199 241 -209 277 -5 19 -10 24 -15 16z"/>
<path d="M5970 4758 c-61 -25 -74 -35 -85 -62 -17 -40 -2 -84 32 -92 34 -9
102 15 120 43 18 28 11 63 -20 97 -19 21 -26 23 -47 14z"/>
<path d="M5650 4710 c0 -6 -6 -10 -12 -8 -7 1 -26 -9 -41 -24 -31 -29 -40 -34
-429 -259 -148 -85 -268 -157 -268 -160 0 -3 14 -25 31 -49 23 -31 34 -39 42
-31 6 6 17 11 24 11 7 0 34 15 60 34 57 39 333 199 486 281 86 45 115 56 142
53 19 -2 35 0 35 5 0 5 7 6 16 3 22 -8 10 24 -32 90 -35 54 -54 74 -54 54z"/>
<path d="M360 4579 c0 -5 -4 -7 -10 -4 -23 14 -31 -8 -10 -30 31 -33 74 -48
115 -41 52 10 44 33 -20 62 -61 27 -75 29 -75 13z"/>
<path d="M5745 4540 c-4 -6 -13 -9 -20 -6 -7 2 -17 -5 -22 -17 -14 -30 -130
-96 -447 -257 -153 -78 -266 -141 -266 -149 0 -7 9 -29 21 -48 16 -26 26 -32
41 -27 11 3 179 85 373 181 195 96 366 176 380 177 32 1 31 14 -2 82 -30 62
-48 81 -58 64z"/>
<path d="M6120 4413 c-47 -16 -99 -46 -104 -60 -14 -35 145 19 169 57 6 10
-38 13 -65 3z"/>
<path d="M223 4272 c-13 -2 -23 -7 -23 -11 0 -9 25 -31 59 -49 28 -16 101 -7
101 13 0 25 -89 56 -137 47z"/>
<path d="M6200 4103 c-67 -25 -79 -33 -74 -47 3 -9 11 -16 16 -16 27 0 120 33
140 50 l23 19 -45 0 c-25 0 -52 -3 -60 -6z"/>
<path d="M128 3953 c-27 -7 -22 -19 16 -37 40 -19 64 -20 103 -5 l28 11 -21
17 c-21 17 -89 24 -126 14z"/>
<path d="M6285 3778 c-84 -17 -127 -48 -67 -48 34 0 129 27 136 39 9 14 -25
18 -69 9z"/>
<path d="M62 3622 c-52 -15 -15 -38 65 -41 17 0 44 4 58 9 68 26 -44 54 -123
32z"/>
<path d="M375 3587 c-5 -20 -10 -25 -16 -16 -4 7 -5 18 -2 24 3 5 0 5 -7 -2
-7 -6 -15 -44 -18 -83 -5 -71 -5 -72 16 -61 17 9 33 7 84 -14 70 -29 138 -70
138 -85 0 -11 -94 -40 -143 -44 -18 -2 -38 1 -45 7 -9 7 -16 7 -24 -1 -6 -6
-16 -8 -23 -6 -20 8 -24 -28 -24 -198 0 -173 3 -195 25 -177 8 6 14 8 14 4 0
-4 6 -3 13 3 21 17 157 27 509 37 113 3 217 8 230 10 88 17 89 17 83 105 -2
30 -4 73 -4 95 l-1 40 -100 39 c-145 57 -148 60 -70 84 36 10 85 22 110 26 25
4 51 10 58 15 15 9 32 104 22 121 -4 7 -27 3 -71 -14 -35 -13 -131 -41 -212
-61 l-148 -38 -57 23 c-104 42 -257 114 -285 133 -16 11 -32 29 -37 41 -7 20
-8 19 -15 -7z m703 -431 c30 -16 58 -44 50 -51 -6 -7 -266 -17 -487 -19 -219
-2 -264 5 -269 41 -4 26 20 38 183 89 61 19 133 43 160 52 l50 18 143 -58 c78
-32 155 -64 170 -72z m79 -38 c-3 -8 -6 -5 -6 6 -1 11 2 17 5 13 3 -3 4 -12 1
-19z m-810 -3 c0 -8 -4 -15 -9 -15 -4 0 -8 7 -8 15 0 8 4 15 8 15 5 0 9 -7 9
-15z"/>
<path d="M6285 3448 c-71 -25 -65 -51 8 -37 57 10 97 26 97 39 0 13 -66 12
-105 -2z"/>
<path d="M6029 3396 c-11 -11 -131 -17 -429 -22 -179 -3 -340 -7 -358 -10
l-33 -5 3 -57 c2 -45 6 -56 18 -54 52 12 136 15 375 15 293 0 365 -2 408 -14
16 -5 27 -4 27 2 0 5 8 9 18 7 15 -3 17 6 18 70 1 68 0 72 -21 72 -12 0 -24
-2 -26 -4z"/>
<path d="M60 3353 c-44 -19 -59 -40 -54 -78 7 -53 52 -69 119 -40 53 22 65 74
25 110 -25 22 -50 24 -90 8z"/>
<path d="M5228 3183 c-14 -3 -18 -15 -18 -54 l0 -49 103 -1 c237 -1 608 -15
665 -25 54 -10 70 -62 20 -65 -54 -3 -111 -2 -233 5 -203 10 -264 15 -350 23
-116 11 -192 10 -206 -4 -7 -7 -13 -31 -13 -54 l-1 -42 70 -2 c79 -2 277 -15
315 -20 14 -2 63 -7 110 -10 47 -4 92 -8 100 -10 8 -1 50 -6 93 -10 43 -4 92
-11 108 -15 17 -5 31 -5 35 1 3 5 9 7 14 4 4 -3 13 2 20 10 14 17 27 256 17
298 l-6 23 -413 1 c-227 0 -421 -1 -430 -4z m832 -158 c0 -33 -15 -33 -16 0
-1 14 2 25 7 25 5 0 9 -11 9 -25z"/>
<path d="M6299 3176 c-60 -25 -74 -60 -43 -105 14 -20 23 -22 56 -18 77 10
108 54 73 104 -18 25 -52 33 -86 19z"/>
<path d="M82 2979 c-78 -8 -101 -25 -47 -35 44 -8 127 6 132 22 6 17 -16 21
-85 13z"/>
<path d="M6265 2812 c-11 -2 -31 -9 -45 -14 -20 -7 -22 -11 -10 -18 20 -13
117 -13 125 0 4 6 11 8 16 5 5 -4 9 -2 9 4 0 6 -12 13 -27 17 -16 3 -32 7 -38
8 -5 1 -19 0 -30 -2z"/>
<path d="M73 2653 c-67 -23 -55 -37 30 -35 43 1 97 22 97 38 0 19 -71 17 -127
-3z"/>
<path d="M1232 2548 c-7 -7 -12 -8 -12 -4 0 5 -10 2 -22 -6 -57 -37 -626 -247
-711 -262 -33 -6 -37 -10 -31 -29 15 -47 121 -279 191 -419 63 -124 77 -146
91 -138 83 44 364 145 385 137 12 -4 -164 -185 -250 -257 l-42 -36 28 -44 c36
-59 60 -78 71 -61 4 8 13 10 19 7 6 -4 11 -3 11 3 0 17 77 106 276 317 236
251 256 274 235 274 -6 0 -160 -49 -344 -110 -184 -60 -349 -113 -368 -116
l-34 -6 47 31 c42 27 271 157 308 175 8 4 24 12 35 19 11 7 56 32 100 56 44
24 110 61 146 84 l66 40 -35 71 c-19 39 -52 112 -74 161 -45 102 -67 132 -86
113z m23 -127 c3 -5 -6 -18 -20 -29 -18 -15 -427 -194 -622 -272 -16 -6 -25
-4 -38 10 -26 29 -51 18 625 285 43 17 47 17 55 6z m58 -146 c3 -16 -97 -77
-303 -182 -107 -55 -221 -115 -254 -132 -70 -38 -100 -38 -104 1 -3 27 4 31
163 108 91 45 228 108 303 141 75 33 146 64 157 69 23 10 36 8 38 -5z m-763
-156 c0 -6 -4 -7 -10 -4 -5 3 -10 11 -10 16 0 6 5 7 10 4 6 -3 10 -11 10 -16z
m80 -179 c12 -23 12 -24 -3 -11 -10 7 -17 20 -17 29 0 18 3 16 20 -18z"/>
<path d="M6163 2493 c-58 -11 1 -47 64 -40 48 5 62 13 47 26 -11 11 -82 19
-111 14z"/>
<path d="M5060 2397 c-14 -7 -35 -31 -47 -53 l-23 -41 163 -83 c365 -187 518
-275 537 -311 24 -44 -5 -41 -101 9 -100 52 -466 266 -536 314 -52 35 -86 30
-114 -16 -20 -32 -25 -66 -11 -66 11 0 355 -202 502 -296 127 -80 166 -115
156 -139 -5 -14 -10 -13 -46 5 -75 38 -492 309 -572 372 -28 22 -43 27 -63 22
-24 -6 -75 -66 -75 -89 0 -5 19 -21 43 -34 61 -35 493 -323 552 -368 46 -35
72 -83 46 -83 -14 0 -389 252 -527 355 -127 95 -139 97 -188 32 -28 -36 -33
-57 -15 -57 25 0 494 -338 585 -422 24 -22 44 -47 44 -54 0 -19 50 -7 68 15
23 29 222 329 222 336 0 4 13 26 30 50 38 55 144 255 138 260 -2 3 -18 1 -36
-4 -27 -8 -46 -1 -166 59 -168 86 -496 267 -517 286 -19 17 -18 17 -49 1z
m666 -513 c-4 -9 -9 -15 -11 -12 -3 3 -3 13 1 22 4 9 9 15 11 12 3 -3 3 -13
-1 -22z"/>
<path d="M170 2337 c-30 -12 -53 -27 -50 -32 5 -11 13 -10 86 10 29 8 54 22
58 30 8 22 -28 19 -94 -8z"/>
<path d="M6067 2183 c-31 -8 -13 -27 43 -46 37 -12 55 -15 60 -7 4 6 15 8 26
3 17 -6 18 -5 5 11 -31 37 -83 52 -134 39z"/>
<path d="M325 2054 c-62 -22 -105 -47 -105 -62 0 -26 133 17 150 49 14 25 1
29 -45 13z"/>
<path d="M5955 1890 c-3 -6 -10 -8 -15 -5 -5 3 -11 1 -14 -4 -7 -11 7 -22 54
-38 22 -8 37 -9 40 -2 4 5 14 7 23 3 26 -9 20 2 -10 24 -37 26 -70 35 -78 22z"/>
<path d="M399 1784 c-20 -8 -42 -26 -49 -39 -10 -20 -10 -27 6 -49 11 -14 30
-29 44 -34 29 -9 87 7 101 29 15 24 10 64 -11 87 -24 26 -41 27 -91 6z"/>
<path d="M5810 1622 c-43 -17 -51 -29 -43 -62 11 -45 53 -80 53 -43 0 13 3 14
12 5 18 -18 26 -14 21 11 -3 14 5 32 22 50 14 15 24 31 21 36 -10 16 -51 17
-86 3z"/>
<path d="M1847 1603 c-10 -3 -104 -120 -209 -261 -105 -141 -211 -281 -236
-309 -26 -31 -42 -59 -39 -67 10 -26 89 -78 101 -66 5 5 17 10 26 10 8 1 34
32 58 69 44 71 147 218 315 448 l96 132 -30 26 c-30 24 -45 28 -82 18z"/>
<path d="M1975 1530 c-4 -6 -10 -8 -15 -5 -9 6 -52 -54 -245 -340 -70 -104
-150 -221 -178 -258 -27 -37 -48 -69 -46 -71 2 -2 28 -18 57 -36 39 -24 56
-30 61 -21 4 7 13 11 19 9 6 -2 25 24 43 57 34 64 237 373 338 515 33 47 60
90 61 97 0 12 -67 63 -82 63 -4 0 -10 -5 -13 -10z"/>
<path d="M625 1483 c-11 -2 -38 -20 -60 -39 l-40 -35 30 6 c37 8 115 52 115
65 0 10 -8 11 -45 3z"/>
<path d="M4177 1388 c5 -19 3 -21 -8 -10 -36 34 -34 20 81 -431 44 -175 80
-327 80 -339 0 -17 4 -19 28 -13 47 11 92 37 92 51 0 8 -4 14 -9 14 -9 0 -87
269 -98 336 l-6 39 30 -32 c84 -93 102 -112 144 -163 55 -65 72 -97 65 -116
-6 -17 -7 -17 35 -3 33 11 169 96 169 105 0 2 -11 2 -23 -1 -17 -5 -33 2 -57
21 -30 26 -105 102 -147 151 -10 11 -48 53 -84 94 -36 41 -101 115 -144 164
-77 88 -105 116 -137 143 -14 12 -16 10 -11 -10z"/>
<path d="M2215 1340 c-4 -6 -13 -9 -20 -6 -8 3 -92 -77 -208 -197 -305 -317
-337 -351 -337 -367 0 -24 37 -41 75 -34 19 3 33 10 32 14 -2 8 106 136 197
234 49 53 56 47 32 -26 -8 -24 -22 -69 -30 -100 -9 -32 -23 -84 -32 -115 -9
-32 -25 -68 -36 -80 -26 -27 -18 -40 47 -72 32 -16 50 -20 57 -13 6 6 17 8 24
5 10 -4 14 3 14 22 0 46 115 472 177 658 14 42 23 80 20 83 -3 3 -8 0 -12 -6z"/>
<path d="M5624 1334 c5 -14 4 -15 -8 -4 -9 6 -21 10 -28 8 -8 -3 -1 -17 22
-39 28 -28 35 -31 38 -17 3 14 7 16 23 8 26 -15 24 2 -6 34 -27 29 -51 35 -41
10z"/>
<path d="M815 1224 c-41 -14 -89 -59 -80 -74 8 -12 81 19 106 46 31 33 21 44
-26 28z"/>
<path d="M2913 1180 c-13 -5 -23 -15 -24 -22 0 -15 -3 -37 -35 -313 -14 -116
-34 -270 -44 -344 -11 -74 -17 -138 -12 -143 12 -12 181 -22 235 -14 37 6 47
11 47 26 0 43 87 390 89 357 1 -4 10 -40 21 -81 32 -119 58 -284 48 -294 -21
-21 60 -25 145 -6 26 5 36 27 18 38 -5 3 -11 16 -14 28 -3 13 -25 104 -50 203
-25 99 -62 253 -83 343 -21 89 -41 162 -45 162 -4 0 -10 -10 -13 -22 -7 -22
-7 -22 -16 -3 -6 16 -9 17 -14 5 -10 -27 -54 -192 -101 -380 -93 -375 -122
-437 -111 -237 3 61 8 137 12 167 3 30 14 141 25 245 11 105 22 214 25 243 l6
52 -44 -1 c-23 0 -53 -4 -65 -9z"/>
<path d="M5400 1103 c0 -14 75 -83 90 -83 9 0 5 9 -11 26 -31 34 -79 68 -79
57z"/>
<path d="M5380 1071 c12 -23 69 -66 77 -58 6 7 -65 77 -79 77 -5 0 -4 -9 2
-19z"/>
<path d="M1025 988 c-28 -15 -65 -50 -77 -71 -9 -17 -7 -18 24 -12 52 11 133
95 91 95 -10 0 -27 -6 -38 -12z"/>
<path d="M5176 872 c-3 -5 3 -17 14 -27 17 -15 20 -16 20 -3 0 19 -26 42 -34
30z"/>
<path d="M5140 851 c0 -13 26 -32 33 -24 8 7 -11 33 -24 33 -5 0 -9 -4 -9 -9z"/>
<path d="M1285 790 c-4 -6 -10 -8 -15 -5 -10 6 -66 -60 -73 -86 -6 -23 5 -24
49 -3 51 25 93 104 54 104 -5 0 -12 -5 -15 -10z"/>
<path d="M4900 682 c0 -12 59 -78 60 -67 0 16 -39 75 -50 75 -5 0 -10 -4 -10
-8z"/>
<path d="M4870 669 c0 -6 11 -24 25 -41 27 -31 32 -25 14 16 -12 26 -39 43
-39 25z"/>
<path d="M1495 599 c-57 -17 -73 -63 -24 -73 19 -4 33 -13 36 -26 6 -23 5 -23
54 -8 33 9 39 15 39 39 0 15 -4 39 -10 53 -10 28 -38 32 -95 15z"/>
<path d="M4622 515 c-34 -15 -56 -55 -47 -85 6 -20 48 -35 53 -20 2 6 8 7 14
4 5 -3 15 1 21 9 7 8 21 17 32 19 29 5 31 42 4 67 -27 24 -33 25 -77 6z"/>
<path d="M1846 451 c-4 -7 -14 -10 -22 -7 -9 3 -21 -9 -34 -34 -22 -44 -28
-82 -9 -63 6 6 17 9 23 7 14 -5 60 80 54 98 -3 9 -6 9 -12 -1z"/>
<path d="M4337 376 c-6 -15 1 -26 15 -26 11 0 10 27 -1 34 -5 3 -11 0 -14 -8z"/>
<path d="M4304 369 c-3 -6 -1 -16 5 -22 8 -8 11 -5 11 11 0 24 -5 28 -16 11z"/>
<path d="M2130 320 c0 -5 -6 -7 -14 -4 -14 5 -39 -37 -51 -88 -8 -31 9 -39 19
-11 6 14 9 15 16 4 6 -10 15 0 34 37 30 59 32 72 11 72 -8 0 -15 -4 -15 -10z"/>
<path d="M4040 250 c0 -11 5 -20 10 -20 6 0 10 9 10 20 0 11 -4 20 -10 20 -5
0 -10 -9 -10 -20z"/>
<path d="M4005 250 c-7 -12 2 -30 16 -30 12 0 12 27 0 35 -5 3 -12 1 -16 -5z"/>
<path d="M2435 203 c-3 -21 -8 -49 -11 -63 -3 -17 2 -13 16 15 20 42 26 85 11
85 -5 0 -12 -17 -16 -37z"/>
<path d="M2401 193 c-6 -21 -11 -49 -10 -63 0 -19 5 -12 19 25 21 58 24 75 10
75 -5 0 -14 -17 -19 -37z"/>
<path d="M3720 186 c0 -8 5 -18 10 -21 6 -3 10 1 10 9 0 8 -4 18 -10 21 -5 3
-10 -1 -10 -9z"/>
<path d="M2752 168 c-9 -21 -11 -21 -11 -3 -2 34 -21 1 -25 -43 -5 -47 8 -57
19 -14 l8 27 7 -25 c6 -24 7 -24 19 12 15 46 2 84 -17 46z"/>
<path d="M3692 165 c0 -16 2 -22 5 -12 2 9 2 23 0 30 -3 6 -5 -1 -5 -18z"/>
<path d="M3052 149 c-32 -12 -52 -34 -52 -56 0 -21 44 -45 67 -36 10 4 14 2 9
-5 -3 -6 -2 -13 3 -16 5 -4 12 -2 16 3 3 6 12 8 20 5 33 -13 41 79 9 103 -20
15 -40 16 -72 2z"/>
<path d="M3404 145 c-5 -13 -9 -14 -15 -4 -11 19 -21 6 -22 -32 -1 -18 3 -34
11 -36 6 -3 12 3 12 14 0 15 2 16 10 3 9 -13 11 -13 20 0 13 20 13 57 0 65 -6
3 -13 -1 -16 -10z"/>
</g>
</svg>
